<svg width="126" height="112" viewBox="0 0 126 112" fill="none" xmlns="http://www.w3.org/2000/svg">
<rect x="0.5" y="1.33228" width="124.157" height="109.336" rx="4.5" stroke="#E4EBF0"/>
<rect x="52.5727" y="10.4799" width="20.0121" height="2.35437" fill="#E4EBF0"/>
<rect x="34.032" y="14.0114" width="57.0934" height="1.17718" fill="#E4EBF0"/>
<rect x="37.5636" y="16.3658" width="50.0303" height="1.17718" fill="#E4EBF0"/>
<rect x="10.7508" y="22.543" width="31.391" height="25.9788" rx="0.74153" fill="#C8D0D7"/>
<g clip-path="url(#clip0_1304_3)">
<path d="M24.5539 33.1645C24.5539 33.5413 24.4043 33.9027 24.1378 34.1691C23.8714 34.4355 23.51 34.5852 23.1332 34.5852C22.7564 34.5852 22.3951 34.4355 22.1286 34.1691C21.8622 33.9027 21.7125 33.5413 21.7125 33.1645C21.7125 32.7877 21.8622 32.4263 22.1286 32.1599C22.3951 31.8935 22.7564 31.7438 23.1332 31.7438C23.51 31.7438 23.8714 31.8935 24.1378 32.1599C24.4043 32.4263 24.5539 32.7877 24.5539 33.1645Z" fill="#E4EBF0"/>
<path d="M20.7654 28.9024C20.263 28.9024 19.7812 29.102 19.4259 29.4572C19.0707 29.8125 18.8711 30.2943 18.8711 30.7967V40.2681C18.8711 40.7705 19.0707 41.2523 19.4259 41.6076C19.7812 41.9628 20.263 42.1624 20.7654 42.1624H32.1311C32.6335 42.1624 33.1153 41.9628 33.4706 41.6076C33.8258 41.2523 34.0254 40.7705 34.0254 40.2681V30.7967C34.0254 30.2943 33.8258 29.8125 33.4706 29.4572C33.1153 29.102 32.6335 28.9024 32.1311 28.9024H20.7654ZM32.1311 29.8495C32.3823 29.8495 32.6232 29.9493 32.8008 30.1269C32.9784 30.3046 33.0782 30.5455 33.0782 30.7967V36.9531L29.5009 35.109C29.4121 35.0645 29.3115 35.0491 29.2134 35.0649C29.1153 35.0807 29.0247 35.1269 28.9544 35.1971L25.4405 38.711L22.9211 37.0327C22.8301 36.9721 22.721 36.9449 22.6122 36.9556C22.5035 36.9663 22.4018 37.0143 22.3244 37.0914L19.8182 39.321V30.7967C19.8182 30.5455 19.918 30.3046 20.0956 30.1269C20.2733 29.9493 20.5142 29.8495 20.7654 29.8495H32.1311Z" fill="#E4EBF0"/>
</g>
<rect x="10.7508" y="55.2029" width="27.6924" height="1.62367" fill="#E4EBF0"/>
<rect x="10.7508" y="52.8679" width="8.11837" height="1.08245" fill="#E4EBF0"/>
<rect x="10.7508" y="57.9083" width="30.5025" height="1.62367" fill="#E4EBF0"/>
<rect x="46.8832" y="22.543" width="31.391" height="25.9788" rx="0.74153" fill="#C8D0D7"/>
<g clip-path="url(#clip1_1304_3)">
<path d="M60.6863 33.1645C60.6863 33.5413 60.5367 33.9026 60.2702 34.1691C60.0038 34.4355 59.6424 34.5852 59.2656 34.5852C58.8888 34.5852 58.5275 34.4355 58.261 34.1691C57.9946 33.9026 57.8449 33.5413 57.8449 33.1645C57.8449 32.7877 57.9946 32.4263 58.261 32.1599C58.5275 31.8934 58.8888 31.7438 59.2656 31.7438C59.6424 31.7438 60.0038 31.8934 60.2702 32.1599C60.5367 32.4263 60.6863 32.7877 60.6863 33.1645Z" fill="#E4EBF0"/>
<path d="M56.8978 28.9024C56.3954 28.9024 55.9135 29.1019 55.5583 29.4572C55.2031 29.8124 55.0035 30.2943 55.0035 30.7966V40.2681C55.0035 40.7705 55.2031 41.2523 55.5583 41.6075C55.9135 41.9628 56.3954 42.1624 56.8978 42.1624H68.2635C68.7659 42.1624 69.2477 41.9628 69.6029 41.6075C69.9582 41.2523 70.1578 40.7705 70.1578 40.2681V30.7966C70.1578 30.2943 69.9582 29.8124 69.6029 29.4572C69.2477 29.1019 68.7659 28.9024 68.2635 28.9024H56.8978ZM68.2635 29.8495C68.5147 29.8495 68.7556 29.9493 68.9332 30.1269C69.1108 30.3045 69.2106 30.5455 69.2106 30.7966V36.9531L65.6333 35.109C65.5444 35.0645 65.4439 35.0491 65.3458 35.0649C65.2477 35.0807 65.1571 35.1269 65.0868 35.1971L61.5729 38.711L59.0535 37.0326C58.9625 36.9721 58.8534 36.9448 58.7446 36.9555C58.6359 36.9662 58.5342 37.0142 58.4568 37.0914L55.9506 39.3209V30.7966C55.9506 30.5455 56.0504 30.3045 56.228 30.1269C56.4057 29.9493 56.6466 29.8495 56.8978 29.8495H68.2635Z" fill="#E4EBF0"/>
</g>
<rect x="46.8832" y="52.8679" width="8.11837" height="1.08245" fill="#E4EBF0"/>
<rect x="46.8832" y="55.2029" width="27.6924" height="1.62367" fill="#E4EBF0"/>
<rect x="46.8832" y="57.9082" width="30.5025" height="1.62367" fill="#E4EBF0"/>
<rect x="83.0156" y="22.543" width="31.391" height="25.9788" rx="0.74153" fill="#C8D0D7"/>
<g clip-path="url(#clip2_1304_3)">
<path d="M96.8187 33.1645C96.8187 33.5413 96.669 33.9026 96.4026 34.1691C96.1362 34.4355 95.7748 34.5852 95.398 34.5852C95.0212 34.5852 94.6598 34.4355 94.3934 34.1691C94.127 33.9026 93.9773 33.5413 93.9773 33.1645C93.9773 32.7877 94.127 32.4263 94.3934 32.1599C94.6598 31.8934 95.0212 31.7438 95.398 31.7438C95.7748 31.7438 96.1362 31.8934 96.4026 32.1599C96.669 32.4263 96.8187 32.7877 96.8187 33.1645Z" fill="#E4EBF0"/>
<path d="M93.0302 28.9024C92.5278 28.9024 92.0459 29.1019 91.6907 29.4572C91.3354 29.8124 91.1359 30.2943 91.1359 30.7966V40.2681C91.1359 40.7705 91.3354 41.2523 91.6907 41.6075C92.0459 41.9628 92.5278 42.1624 93.0302 42.1624H104.396C104.898 42.1624 105.38 41.9628 105.735 41.6075C106.091 41.2523 106.29 40.7705 106.29 40.2681V30.7966C106.29 30.2943 106.091 29.8124 105.735 29.4572C105.38 29.1019 104.898 28.9024 104.396 28.9024H93.0302ZM104.396 29.8495C104.647 29.8495 104.888 29.9493 105.066 30.1269C105.243 30.3045 105.343 30.5455 105.343 30.7966V36.9531L101.766 35.109C101.677 35.0645 101.576 35.0491 101.478 35.0649C101.38 35.0807 101.289 35.1269 101.219 35.1971L97.7052 38.711L95.1858 37.0326C95.0949 36.9721 94.9858 36.9448 94.877 36.9555C94.7683 36.9662 94.6666 37.0142 94.5891 37.0914L92.083 39.3209V30.7966C92.083 30.5455 92.1828 30.3045 92.3604 30.1269C92.538 29.9493 92.779 29.8495 93.0302 29.8495H104.396Z" fill="#E4EBF0"/>
</g>
<rect x="83.0156" y="52.8679" width="8.11837" height="1.08245" fill="#E4EBF0"/>
<rect x="83.0156" y="55.2029" width="27.6924" height="1.62367" fill="#E4EBF0"/>
<rect x="83.0156" y="57.9082" width="30.5025" height="1.62367" fill="#E4EBF0"/>
<rect x="10.7508" y="64.5319" width="31.391" height="25.9788" rx="0.74153" fill="#C8D0D7"/>
<g clip-path="url(#clip3_1304_3)">
<path d="M24.5539 75.1535C24.5539 75.5303 24.4043 75.8916 24.1378 76.1581C23.8714 76.4245 23.51 76.5742 23.1332 76.5742C22.7564 76.5742 22.3951 76.4245 22.1286 76.1581C21.8622 75.8916 21.7125 75.5303 21.7125 75.1535C21.7125 74.7767 21.8622 74.4153 22.1286 74.1489C22.3951 73.8824 22.7564 73.7327 23.1332 73.7327C23.51 73.7327 23.8714 73.8824 24.1378 74.1489C24.4043 74.4153 24.5539 74.7767 24.5539 75.1535Z" fill="#E4EBF0"/>
<path d="M20.7654 70.8913C20.263 70.8913 19.7812 71.0909 19.4259 71.4462C19.0707 71.8014 18.8711 72.2832 18.8711 72.7856V82.2571C18.8711 82.7595 19.0707 83.2413 19.4259 83.5965C19.7812 83.9518 20.263 84.1513 20.7654 84.1513H32.1311C32.6335 84.1513 33.1153 83.9518 33.4706 83.5965C33.8258 83.2413 34.0254 82.7595 34.0254 82.2571V72.7856C34.0254 72.2832 33.8258 71.8014 33.4706 71.4462C33.1153 71.0909 32.6335 70.8913 32.1311 70.8913H20.7654ZM32.1311 71.8385C32.3823 71.8385 32.6232 71.9383 32.8008 72.1159C32.9784 72.2935 33.0782 72.5344 33.0782 72.7856V78.9421L29.5009 77.098C29.4121 77.0535 29.3115 77.038 29.2134 77.0538C29.1153 77.0697 29.0247 77.1159 28.9544 77.1861L25.4405 80.7L22.9211 79.0216C22.8301 78.9611 22.721 78.9338 22.6122 78.9445C22.5035 78.9552 22.4018 79.0032 22.3244 79.0803L19.8182 81.3099V72.7856C19.8182 72.5344 19.918 72.2935 20.0956 72.1159C20.2733 71.9383 20.5142 71.8385 20.7654 71.8385H32.1311Z" fill="#E4EBF0"/>
</g>
<rect x="10.7508" y="97.1919" width="27.6924" height="1.62367" fill="#E4EBF0"/>
<rect x="10.7508" y="94.8569" width="8.11837" height="1.08245" fill="#E4EBF0"/>
<rect x="10.7508" y="99.8972" width="30.5025" height="1.62367" fill="#E4EBF0"/>
<rect x="46.8832" y="64.5319" width="31.391" height="25.9788" rx="0.74153" fill="#C8D0D7"/>
<g clip-path="url(#clip4_1304_3)">
<path d="M60.6863 75.1534C60.6863 75.5302 60.5367 75.8916 60.2702 76.158C60.0038 76.4245 59.6424 76.5741 59.2656 76.5741C58.8888 76.5741 58.5275 76.4245 58.261 76.158C57.9946 75.8916 57.8449 75.5302 57.8449 75.1534C57.8449 74.7766 57.9946 74.4153 58.261 74.1488C58.5275 73.8824 58.8888 73.7327 59.2656 73.7327C59.6424 73.7327 60.0038 73.8824 60.2702 74.1488C60.5367 74.4153 60.6863 74.7766 60.6863 75.1534Z" fill="#E4EBF0"/>
<path d="M56.8978 70.8913C56.3954 70.8913 55.9135 71.0909 55.5583 71.4461C55.2031 71.8014 55.0035 72.2832 55.0035 72.7856V82.257C55.0035 82.7594 55.2031 83.2413 55.5583 83.5965C55.9135 83.9517 56.3954 84.1513 56.8978 84.1513H68.2635C68.7659 84.1513 69.2477 83.9517 69.6029 83.5965C69.9582 83.2413 70.1578 82.7594 70.1578 82.257V72.7856C70.1578 72.2832 69.9582 71.8014 69.6029 71.4461C69.2477 71.0909 68.7659 70.8913 68.2635 70.8913H56.8978ZM68.2635 71.8385C68.5147 71.8385 68.7556 71.9382 68.9332 72.1159C69.1108 72.2935 69.2106 72.5344 69.2106 72.7856V78.942L65.6333 77.0979C65.5444 77.0535 65.4439 77.038 65.3458 77.0538C65.2477 77.0696 65.1571 77.1159 65.0868 77.186L61.5729 80.6999L59.0535 79.0216C58.9625 78.961 58.8534 78.9338 58.7446 78.9445C58.6359 78.9552 58.5342 79.0032 58.4568 79.0803L55.9506 81.3099V72.7856C55.9506 72.5344 56.0504 72.2935 56.228 72.1159C56.4057 71.9382 56.6466 71.8385 56.8978 71.8385H68.2635Z" fill="#E4EBF0"/>
</g>
<rect x="46.8832" y="94.8569" width="8.11837" height="1.08245" fill="#E4EBF0"/>
<rect x="46.8832" y="97.1919" width="27.6924" height="1.62367" fill="#E4EBF0"/>
<rect x="46.8832" y="99.8972" width="30.5025" height="1.62367" fill="#E4EBF0"/>
<rect x="83.0156" y="64.5319" width="31.391" height="25.9788" rx="0.74153" fill="#C8D0D7"/>
<g clip-path="url(#clip5_1304_3)">
<path d="M96.8187 75.1534C96.8187 75.5302 96.669 75.8916 96.4026 76.158C96.1362 76.4245 95.7748 76.5741 95.398 76.5741C95.0212 76.5741 94.6598 76.4245 94.3934 76.158C94.127 75.8916 93.9773 75.5302 93.9773 75.1534C93.9773 74.7766 94.127 74.4153 94.3934 74.1488C94.6598 73.8824 95.0212 73.7327 95.398 73.7327C95.7748 73.7327 96.1362 73.8824 96.4026 74.1488C96.669 74.4153 96.8187 74.7766 96.8187 75.1534Z" fill="#E4EBF0"/>
<path d="M93.0302 70.8913C92.5278 70.8913 92.0459 71.0909 91.6907 71.4461C91.3354 71.8014 91.1359 72.2832 91.1359 72.7856V82.257C91.1359 82.7594 91.3354 83.2413 91.6907 83.5965C92.0459 83.9517 92.5278 84.1513 93.0302 84.1513H104.396C104.898 84.1513 105.38 83.9517 105.735 83.5965C106.091 83.2413 106.29 82.7594 106.29 82.257V72.7856C106.29 72.2832 106.091 71.8014 105.735 71.4461C105.38 71.0909 104.898 70.8913 104.396 70.8913H93.0302ZM104.396 71.8385C104.647 71.8385 104.888 71.9382 105.066 72.1159C105.243 72.2935 105.343 72.5344 105.343 72.7856V78.942L101.766 77.0979C101.677 77.0535 101.576 77.038 101.478 77.0538C101.38 77.0696 101.289 77.1159 101.219 77.186L97.7052 80.6999L95.1858 79.0216C95.0949 78.961 94.9858 78.9338 94.877 78.9445C94.7683 78.9552 94.6666 79.0032 94.5891 79.0803L92.083 81.3099V72.7856C92.083 72.5344 92.1828 72.2935 92.3604 72.1159C92.538 71.9382 92.779 71.8385 93.0302 71.8385H104.396Z" fill="#E4EBF0"/>
</g>
<rect x="83.0156" y="94.8569" width="8.11837" height="1.08245" fill="#E4EBF0"/>
<rect x="83.0156" y="97.1919" width="27.6924" height="1.62367" fill="#E4EBF0"/>
<rect x="83.0156" y="99.8972" width="30.5025" height="1.62367" fill="#E4EBF0"/>
<defs>
<clipPath id="clip0_1304_3">
<rect width="15.1543" height="15.1543" fill="white" transform="translate(18.8692 27.9552)"/>
</clipPath>
<clipPath id="clip1_1304_3">
<rect width="15.1543" height="15.1543" fill="white" transform="translate(55.0016 27.9552)"/>
</clipPath>
<clipPath id="clip2_1304_3">
<rect width="15.1543" height="15.1543" fill="white" transform="translate(91.134 27.9552)"/>
</clipPath>
<clipPath id="clip3_1304_3">
<rect width="15.1543" height="15.1543" fill="white" transform="translate(18.8692 69.9442)"/>
</clipPath>
<clipPath id="clip4_1304_3">
<rect width="15.1543" height="15.1543" fill="white" transform="translate(55.0016 69.9442)"/>
</clipPath>
<clipPath id="clip5_1304_3">
<rect width="15.1543" height="15.1543" fill="white" transform="translate(91.134 69.9442)"/>
</clipPath>
</defs>
</svg>
