<svg xmlns="http://www.w3.org/2000/svg" xmlns:xlink="http://www.w3.org/1999/xlink" xmlns:serif="http://www.serif.com/" width="100%" height="100%" viewBox="0 0 150 150" xml:space="preserve" style="fill-rule:evenodd;clip-rule:evenodd;stroke-linejoin:round;stroke-miterlimit:2;">
    <g>
        <circle cx="75" cy="75" r="75" style="fill:url(#_Linear1);"></circle>
    </g>
    <g transform="matrix(3.58216,0,0,3.58216,29.22,35.5962)">
        <path d="M15.974,15.108C15.974,15.354 15.884,15.569 15.703,15.751C15.522,15.931 15.308,16.021 15.061,16.021L10.497,16.021C10.249,16.021 10.035,15.931 9.855,15.751C9.673,15.569 9.584,15.355 9.584,15.108L9.584,12.826L0,12.826L0,19.673C0,20.301 0.223,20.837 0.67,21.284C1.116,21.731 1.654,21.954 2.282,21.954L23.277,21.954C23.904,21.954 24.442,21.731 24.888,21.284C25.335,20.837 25.559,20.301 25.559,19.673L25.559,12.826L15.974,12.826L15.974,15.108Z" style="fill:white;fill-rule:nonzero;"></path>
        <rect x="10.954" y="12.826" width="3.651" height="1.825" style="fill:white;"></rect>
        <path d="M24.889,4.368C24.443,3.922 23.905,3.699 23.278,3.699L18.257,3.699L18.257,1.416C18.257,1.035 18.124,0.712 17.858,0.446C17.592,0.18 17.269,0.046 16.888,0.046L8.672,0.046C8.292,0.046 7.969,0.18 7.701,0.446C7.435,0.711 7.302,1.035 7.302,1.416L7.302,3.699L2.282,3.699C1.654,3.699 1.116,3.922 0.67,4.368C0.223,4.815 0,5.352 0,5.98L0,11.457L25.56,11.457L25.56,5.98C25.56,5.352 25.336,4.815 24.889,4.368ZM16.431,3.699L9.129,3.699L9.129,1.872L16.431,1.872L16.431,3.699Z" style="fill:white;fill-rule:nonzero;"></path>
    </g>
    <defs>
        <linearGradient id="_Linear1" x1="0" y1="0" x2="1" y2="0" gradientUnits="userSpaceOnUse" gradientTransform="matrix(150,0,0,150,0,75)"><stop offset="0" style="stop-color:rgb(242,112,156);stop-opacity:1"></stop><stop offset="1" style="stop-color:rgb(255,148,114);stop-opacity:1"></stop></linearGradient>
    </defs>
</svg>